<svg width="124" height="125" viewBox="0 0 124 125" fill="none" xmlns="http://www.w3.org/2000/svg">
<path d="M62.2171 124.173H60.8838V-7.62939e-06H62.2171V124.173Z" fill="white"/>
<path d="M94.5575 114.679L27.4229 10.216L28.5442 9.49467L95.6788 113.957L94.5575 114.679Z" fill="white"/>
<path d="M117.751 88.484L4.79736 36.9013L5.3507 35.6893L118.304 87.272L117.751 88.484Z" fill="white"/>
<path d="M0.190674 71.5826L0 70.2627L122.911 52.5906L123.101 53.9107L0.190674 71.5826Z" fill="white"/>
<path d="M15.0652 103.249L14.1919 102.241L108.036 20.9253L108.909 21.932L15.0652 103.249Z" fill="white"/>
<path d="M44.6985 121.847L43.4185 121.472L78.4024 2.32662L79.6825 2.7013L44.6985 121.847Z" fill="white"/>
<path d="M78.4024 121.847L43.4185 2.7013L44.6985 2.32662L79.6825 121.472L78.4024 121.847Z" fill="white"/>
<path d="M108.036 103.249L14.1919 21.932L15.0652 20.9253L108.909 102.241L108.036 103.249Z" fill="white"/>
<path d="M122.911 71.5826L0 53.9107L0.190674 52.5906L123.101 70.2627L122.911 71.5826Z" fill="white"/>
<path d="M5.3507 88.484L4.79736 87.272L117.751 35.6893L118.304 36.9013L5.3507 88.484Z" fill="white"/>
<path d="M28.5442 114.679L27.4229 113.957L94.5575 9.49467L95.6788 10.216L28.5442 114.679Z" fill="white"/>
</svg>
